<?xml version="1.0" encoding="utf-8"?>
<!-- Generator: Adobe Illustrator 24.2.1, SVG Export Plug-In . SVG Version: 6.00 Build 0)  -->
<svg version="1.1" id="Layer_1" xmlns="http://www.w3.org/2000/svg" xmlns:xlink="http://www.w3.org/1999/xlink" x="0px" y="0px"
	 viewBox="0 0 121.4 44.7" style="enable-background:new 0 0 121.4 44.7;" xml:space="preserve">
<style type="text/css">
	.st0{fill:url(#SVGID_1_);}
</style>
<linearGradient id="SVGID_1_" gradientUnits="userSpaceOnUse" x1="124.7976" y1="16.9555" x2="-66.6124" y2="16.9555" gradientTransform="matrix(1 0 0 -1 0 40)">
	<stop  offset="2.000000e-02" style="stop-color:#C03D84"/>
	<stop  offset="0.22" style="stop-color:#D1009D"/>
	<stop  offset="0.26" style="stop-color:#CB059F"/>
	<stop  offset="0.32" style="stop-color:#BA13A4"/>
	<stop  offset="0.39" style="stop-color:#9E29AD"/>
	<stop  offset="0.47" style="stop-color:#7749B9"/>
	<stop  offset="0.55" style="stop-color:#4572C8"/>
	<stop  offset="0.63" style="stop-color:#09A3DA"/>
	<stop  offset="0.64" style="stop-color:#00AADD"/>
	<stop  offset="0.9" style="stop-color:#E9D013"/>
	<stop  offset="1" style="stop-color:#FFD400"/>
</linearGradient>
<path class="st0" d="M40.4,12.1c0,1.5-0.5,2.9-1.5,4.1c-1,1.1-2.2,2.1-3.6,2.8c-1.4,0.7-3,1.2-4.6,1.6c-1.4,0.3-2.9,0.5-4.4,0.5
	c-1.7,0-3.4-0.2-5-0.7c-1.5-0.4-2.9-1.2-4.1-2.4c-0.2-0.3-0.5-0.6-0.7-0.9c-0.2-0.3-0.4-0.7-0.5-1.1c-0.1-0.4,0-0.6,0.1-0.7
	s0.6-0.1,1.2,0.3c1.1,0.6,2.3,1.1,3.6,1.3c1.3,0.2,2.7,0.4,4,0.4c0.4,0,1,0,1.7-0.1s1.5-0.2,2.3-0.3s1.7-0.4,2.5-0.6
	c0.8-0.2,1.6-0.5,2.4-0.9c0.6-0.3,1.2-0.8,1.7-1.3c0.4-0.5,0.7-1.1,0.7-1.7c0-1.1-0.5-2.1-1.4-2.7c-1-0.7-2.2-1.3-3.4-1.7
	c-1.3-0.4-2.6-0.7-4-0.9c-1.1-0.2-2.2-0.2-3.4-0.3c-2.1,0-4.2,0.3-6.3,0.9c-2,0.6-3.9,1.5-5.5,2.7c-1.6,1.2-3,2.7-4,4.5
	c-1,1.9-1.6,4.1-1.5,6.2c0,1.7,0.3,3.4,1.1,4.9c0.7,1.5,1.7,2.7,2.9,3.8c1.3,1.1,2.8,1.9,4.5,2.4c1.8,0.6,3.6,0.9,5.5,0.9
	c2.3,0,4.6-0.4,6.7-1.2c2-0.8,3.8-2,5.3-3.5c0-0.4,0.1-0.9,0.2-1.6s0.2-1.4,0.3-2.1c0.1-0.7,0.3-1.4,0.4-2c0.1-0.5,0.3-0.9,0.6-1.3
	l0,0c0.2-0.3,0.6-0.4,0.9-0.3c0.4,0.1,0.8,0.3,1.2,0.5c0.4,0.2,0.7,0.6,1,0.9c0.2,0.2,0.4,0.6,0.4,0.9c-0.4,1.7-0.7,3.4-0.9,5
	c-0.2,1.8-0.4,3.4-0.6,4.9c-0.1,1.2-0.4,2.5-0.8,3.7c-0.3,1-0.7,1.4-1.3,1.4c-0.3,0-0.6-0.2-0.8-0.7c-0.2-0.6-0.4-1.2-0.4-1.8
	c-0.1-0.7-0.2-1.5-0.2-2.3s-0.1-1.5-0.1-2.1c-1.8,1.5-3.8,2.7-6,3.5c-2.2,0.8-4.4,1.2-6.7,1.3c-2.1,0-4.1-0.3-6.1-1
	c-2-0.7-3.8-1.7-5.4-3c-1.6-1.3-2.9-3-3.9-4.8c-1-2-1.5-4.2-1.5-6.5c0-2.5,0.6-5.1,1.7-7.3c1.2-2.2,2.8-4.2,4.7-5.7
	c2-1.6,4.3-2.9,6.8-3.7c2.6-0.9,5.3-1.3,8-1.3c1.8,0,3.5,0.2,5.2,0.5c1.8,0.3,3.6,0.8,5.2,1.5c1.5,0.7,2.9,1.7,4,2.9
	C39.9,8.9,40.4,10.5,40.4,12.1z M44.8,22.9c-0.1,0.3-0.2,0.5-0.5,0.7c-0.2,0.1-0.5,0.2-0.8,0.1c-0.3-0.1-0.5-0.2-0.6-0.4
	c-0.2-0.3-0.2-0.6,0-0.9l0.4-1c-0.3-0.3-0.5-0.8-0.6-1.2c0-0.4,0-0.9,0.2-1.3c0.2-0.4,0.5-0.8,0.9-1.1c0.4-0.3,0.8-0.4,1.3-0.4
	c0.8,0,1.3,0.3,1.3,0.9c0.1,0.7-0.1,1.4-0.3,2c0.4,0.1,0.7,0.2,1.1,0.1c0.5-0.1,1-0.1,1.5-0.1c0.4,0,0.8,0.1,1.2,0.3
	c0.3,0.2,0.4,0.6,0.2,1.3c-0.2,0.7-0.3,1.5-0.5,2.5c-0.2,1-0.3,1.9-0.4,2.8c-0.1,0.7-0.1,1.5,0,2.3c0.1,0.6,0.3,0.9,0.6,0.9
	c0.4,0,0.5-0.3,0.9-1s0.8-1.5,1.1-2.4s0.7-1.8,1-2.7c0.2-0.7,0.4-1.4,0.6-2.1c0-0.3,0.2-0.6,0.5-0.8c0.2-0.1,0.5-0.2,0.8-0.2
	c0.3,0,0.5,0.1,0.7,0.4c0.2,0.3,0.3,0.6,0.2,0.9c0,0.2-0.1,0.6-0.3,1.3c-0.1,0.6-0.4,1.4-0.6,2.2s-0.6,1.6-1,2.5
	c-0.4,0.9-0.9,1.7-1.4,2.4c-0.5,0.7-1.1,1.3-1.7,1.8c-0.7,0.4-1.4,0.7-2.2,0.6c-0.8,0-1.6-0.5-2-1.3C45.8,31,45.5,30,45.4,29
	c-0.1-1.2-0.1-2.4,0.1-3.5c0.1-1.1,0.4-2.2,0.7-3.3c-0.2,0-0.4,0.1-0.6,0.1h-0.5C45,22.5,44.9,22.7,44.8,22.9L44.8,22.9z M63.2,22.2
	c-0.3,0.4-0.7,0.8-1.2,1c-0.5,0.3-1,0.5-1.5,0.7c-0.5,0.2-1.1,0.3-1.7,0.4c-0.6,0.1-1.1,0.1-1.5,0.2c-0.1,0.8-0.2,1.6-0.2,2.4
	c0,0.7,0,1.4,0.1,2.1c0.1,0.5,0.2,1.1,0.5,1.6c0.2,0.4,0.5,0.7,0.9,0.8c0.6,0.2,1.2,0.1,1.6-0.3c0.6-0.4,1.2-0.8,1.7-1.4
	c0.6-0.6,1.1-1.3,1.6-2c0.5-0.8,1-1.5,1.3-2.3c0.3-0.7,0.7-1.4,1-2c0.2-0.4,0.4-0.9,0.5-1.3c0.1-0.3,0.3-0.6,0.6-0.7
	c0.2-0.1,0.5-0.2,0.7-0.1c0.2,0,0.5,0.2,0.6,0.4c0.2,0.3,0.2,0.6,0.1,0.9c-0.1,0.2-0.2,0.7-0.4,1.4c-0.2,0.8-0.5,1.5-0.8,2.3
	c-0.4,0.9-0.8,1.8-1.3,2.6c-0.5,0.9-1.2,1.8-1.9,2.5c-0.7,0.8-1.6,1.4-2.5,1.9c-1,0.5-2.1,0.8-3.2,0.8c-1.3,0.1-2.5-0.5-3.3-1.5
	c-0.8-1.1-1.4-2.3-1.6-3.7c-0.3-1.6-0.4-3.2-0.2-4.8c0.2-1.6,0.5-3.2,1.1-4.8c0.4-1.3,1.1-2.6,2-3.7c0.6-0.9,1.6-1.4,2.7-1.5
	c0.9,0,1.8,0.4,2.5,1c0.7,0.6,1.3,1.4,1.7,2.2c0.4,0.8,0.6,1.7,0.7,2.6C63.7,20.9,63.6,21.7,63.2,22.2L63.2,22.2z M59.5,17
	c-0.3,0.1-0.6,0.6-0.9,1.5c-0.4,1-0.6,2.1-0.9,3.2c0.4,0,0.9,0,1.3-0.1c0.4-0.1,0.7-0.3,0.9-0.6c0.2-0.3,0.3-0.6,0.3-1
	c0-0.5,0-0.9,0-1.4c0-0.4-0.1-0.8-0.3-1.2C59.9,17.1,59.8,17,59.5,17L59.5,17z M76.1,22.2c-0.3,0.4-0.7,0.8-1.2,1
	c-0.5,0.3-1,0.5-1.5,0.7c-0.5,0.2-1.1,0.3-1.7,0.4c-0.6,0.1-1.1,0.1-1.5,0.2c-0.1,0.8-0.2,1.6-0.2,2.4c0,0.7,0,1.4,0,2.1
	c0.1,0.5,0.2,1.1,0.5,1.6c0.2,0.4,0.5,0.7,0.9,0.8c0.6,0.1,1.2,0,1.6-0.3c0.6-0.4,1.2-0.8,1.7-1.4c0.6-0.6,1.1-1.3,1.6-2
	c0.5-0.8,1-1.5,1.3-2.3c0.3-0.7,0.7-1.4,1-2c0.2-0.4,0.4-0.9,0.5-1.3c0.1-0.3,0.3-0.6,0.6-0.7c0.2-0.1,0.5-0.2,0.7-0.1
	c0.2,0,0.5,0.2,0.6,0.4c0.2,0.3,0.2,0.6,0.1,0.9c-0.1,0.2-0.2,0.7-0.4,1.4c-0.2,0.8-0.5,1.6-0.8,2.3c-0.4,0.9-0.8,1.8-1.3,2.6
	c-0.5,0.9-1.2,1.8-1.9,2.5c-0.7,0.8-1.6,1.4-2.5,1.9c-1,0.5-2.1,0.8-3.2,0.8c-1.3,0.1-2.5-0.5-3.3-1.5c-0.8-1.1-1.4-2.3-1.6-3.7
	c-0.3-1.6-0.3-3.2-0.1-4.8c0.1-1.6,0.5-3.2,1-4.8c0.4-1.3,1.1-2.6,2-3.7c0.6-0.9,1.6-1.4,2.7-1.5c0.9,0,1.8,0.4,2.5,1
	c0.7,0.6,1.3,1.4,1.7,2.2c0.4,0.8,0.6,1.7,0.7,2.6C76.6,20.9,76.5,21.6,76.1,22.2z M72.4,17c-0.3,0.1-0.6,0.6-0.9,1.5
	c-0.4,1-0.6,2.1-0.9,3.2c0.4,0,0.9,0,1.3-0.1c0.4-0.1,0.7-0.3,0.9-0.6c0.2-0.3,0.3-0.6,0.3-1c0-0.5,0-0.9,0-1.4
	c0-0.4-0.1-0.8-0.3-1.2C72.8,17.1,72.6,17,72.4,17L72.4,17z M79.9,13.3c0-0.3,0-0.5,0-0.8s0-0.5,0-0.7c-0.1-0.8,0.2-1.5,0.8-2
	c0.5-0.4,1-0.5,1.6-0.5c0.6,0,1.2,0.3,1.6,0.7c0.4,0.4,0.6,1,0.5,1.5L84.1,13h1.4c0.6,0,1.1,0.1,1.6,0.4c0.3,0.2,0.5,0.5,0.5,0.8
	c0,0.3-0.2,0.6-0.5,0.8c-0.4,0.3-0.9,0.4-1.5,0.4h-1.8c-0.2,1.4-0.3,3-0.4,4.6c-0.1,1.6-0.2,3.3-0.2,4.8c0,1.2,0,2.5,0.1,3.7
	c0.1,1,0.3,1.5,0.5,1.5c0.3,0,0.6-0.4,1-1c0.4-0.7,0.8-1.5,1.3-2.4c0.4-0.9,0.8-1.8,1.2-2.7s0.6-1.5,0.7-1.8c0-0.3,0.2-0.6,0.5-0.7
	c0.2-0.1,0.5-0.1,0.8-0.1c0.3,0.1,0.5,0.2,0.6,0.4c0.2,0.2,0.2,0.6,0.1,0.9c-0.2,0.8-0.5,1.8-0.9,3c-0.4,1.2-0.9,2.5-1.5,3.6
	c-0.6,1.1-1.3,2.1-2.1,3c-0.7,0.8-1.8,1.3-2.9,1.3c-0.7,0-1.4-0.3-1.8-0.9c-0.5-0.7-0.8-1.5-1-2.3c-0.3-1.1-0.4-2.2-0.4-3.3
	c-0.1-1.2-0.1-2.5,0-3.9s0.1-2.7,0.2-4s0.2-2.6,0.3-3.7h-1.5c-0.5,0-1-0.1-1.4-0.4c-0.3-0.2-0.5-0.4-0.5-0.8c0-0.3,0.2-0.6,0.4-0.8
	c0.5-0.3,1-0.4,1.5-0.4L79.9,13.3z M96.7,28.8c0,0.9-0.5,1.7-1.3,2.1c-0.7,0.4-1.6,0.5-2.4,0.3C92.3,31,91.6,30.6,91,30
	c-0.6-0.6-1-1.4-0.9-2.3c0-0.9,0.4-1.7,1.1-2.1c0.7-0.4,1.6-0.6,2.4-0.4c0.9,0.2,1.7,0.6,2.3,1.3C96.5,27.1,96.8,28,96.7,28.8
	L96.7,28.8z M99.2,8c-0.1-0.7,0.2-1.5,0.8-2c0.5-0.4,1.1-0.5,1.7-0.5c0.6,0,1.1,0.3,1.6,0.6c0.4,0.4,0.6,1,0.5,1.5
	c-0.1,0.5-0.2,1.4-0.4,2.8c-0.2,1.4-0.3,2.9-0.5,4.7c-0.2,1.8-0.3,3.6-0.4,5.5c-0.1,1.9-0.2,3.7-0.2,5.3c0,1.3,0,2.7,0.2,4
	c0.1,1,0.4,1.5,0.8,1.5s0.6-0.4,1-1.3c0.4-0.9,0.8-1.8,1.2-2.9s0.8-2.1,1.1-3.2s0.6-1.7,0.7-2c0-0.3,0.2-0.6,0.5-0.7
	c0.2-0.1,0.5-0.1,0.8-0.1c0.3,0.1,0.5,0.2,0.7,0.4c0.2,0.2,0.2,0.6,0.1,0.9c-0.2,0.8-0.5,1.9-0.9,3.3c-0.4,1.4-0.9,2.8-1.5,4.1
	c-0.5,1.3-1.2,2.5-2.1,3.6c-0.7,0.9-1.8,1.4-2.9,1.4c-1.1,0-2-0.7-2.4-1.7c-0.6-1.3-1-2.8-1.1-4.2c-0.2-1.9-0.3-3.8-0.3-5.7
	c0.1-2.1,0.2-4.1,0.3-6.1c0.2-2,0.3-3.8,0.5-5.5C99.1,10.2,99.1,8.9,99.2,8L99.2,8z M118,39.5c0,0.8-0.3,1.5-0.8,2.1
	c-0.4,0.6-1,1.1-1.7,1.4c-0.5,0.3-1.1,0.4-1.6,0.3c-0.5-0.1-0.7-0.5-0.6-1.1c0-0.5,0.1-1.2,0.2-2.2c0-0.9,0.1-2,0.2-3.2
	c0.1-1.1,0.2-2.4,0.2-3.8c0-1.3,0.1-2.7,0.2-4c-0.4,1-0.9,1.9-1.6,2.7c-0.4,0.4-0.8,0.6-1.4,0.6c-0.5,0-1-0.1-1.5-0.3
	c-0.5-0.2-0.9-0.6-1.3-1c-0.4-0.4-0.6-1-0.8-1.5c-0.1-0.8-0.2-1.5-0.2-2.3c0-1-0.1-2-0.1-3.1s0-2.3,0.1-3.5s0.1-2.3,0.1-3.4
	c0-0.6,0.3-1.2,0.8-1.6c0.5-0.3,1-0.5,1.6-0.6c0.5-0.1,1.1,0,1.6,0.2c0.4,0.1,0.7,0.5,0.7,1c-0.1,1.3-0.2,2.6-0.3,4
	s-0.2,2.8-0.3,4.1s-0.1,2.3-0.1,3.2s0.1,1.4,0.4,1.4s0.4-0.1,0.7-0.5c0.3-0.5,0.5-1,0.6-1.6c0.2-0.7,0.4-1.4,0.6-2.2
	s0.4-1.6,0.5-2.3s0.3-1.4,0.3-2c0.1-0.4,0.1-0.9,0.2-1.3c0.5-0.2,0.8-0.2,0.9,0c0.2,0.4,0.3,0.8,0.4,1.3c0,0.4,0,0.8,0,1.1
	c0,0.7-0.1,1.4-0.2,2.2c-0.1,0.8-0.3,1.7-0.6,2.7c-0.3,0.9-0.6,1.9-1,2.8c0.1-2.1,0.2-4.2,0.3-6.1s0.1-3.5,0.2-4.6
	c0-0.5,0.3-0.9,0.7-1.1c0.5-0.3,1-0.4,1.5-0.4c0.5,0,1,0.1,1.5,0.3c0.4,0.2,0.6,0.6,0.6,1c-0.1,0.8-0.2,1.9-0.3,3.1
	c-0.1,1.3-0.2,2.7-0.2,4.1s-0.1,2.9-0.1,4.5s0,2.9,0,4.2c0,1.3,0,2.4-0.1,3.4S118.1,39.2,118,39.5L118,39.5z"/>
</svg>
